HIERARCHY
ROOT SpineBase
{
  OFFSET 0.000000 0.000000 0.000000
  CHANNELS 6 Xposition Yposition Zposition Zrotation Xrotation Yrotation
  JOINT SpineMid
  {
    OFFSET 0.000000 31.025024 0.000000
    CHANNELS 3 Zrotation Xrotation Yrotation
    JOINT SpineShoulder
    {
      OFFSET -0.080614 23.100612 -0.606263
      CHANNELS 3 Zrotation Xrotation Yrotation
      JOINT Neck
      {
        OFFSET -0.078455 7.686478 -0.487405
        CHANNELS 3 Zrotation Xrotation Yrotation
        JOINT Head
        {
          OFFSET 4.559404 11.883027 1.510218
          CHANNELS 3 Zrotation Xrotation Yrotation
          End Site
          {
            OFFSET 0 0 0
          }
        }
      }
      JOINT ShoulderLeft
      {
        OFFSET -9.479985 -4.628835 -11.257419
        CHANNELS 3 Zrotation Xrotation Yrotation
        JOINT ElbowLeft
        {
          OFFSET -8.376721 -25.292064 1.524346
          CHANNELS 3 Zrotation Xrotation Yrotation
          JOINT WristLeft
          {
            OFFSET -2.927326 -21.121175 -1.086771
            CHANNELS 3 Zrotation Xrotation Yrotation
            JOINT HandLeft
            {
              OFFSET 0.352739 -6.223155 1.446011
              CHANNELS 3 Zrotation Xrotation Yrotation
              JOINT HandTipLeft
              {
                OFFSET -1.099343 -6.921911 1.531093
                CHANNELS 3 Zrotation Xrotation Yrotation
                End Site
                {
                  OFFSET 0 0 0
                }
              }
              JOINT ThumbLeft
              {
                OFFSET -2.618972 2.078829 -3.242948
                CHANNELS 3 Zrotation Xrotation Yrotation
                End Site
                {
                  OFFSET 0 0 0
                }
              }
            }
          }
        }
      }
      JOINT ShoulderRight
      {
        OFFSET 14.048229 -7.808757 4.423470
        CHANNELS 3 Zrotation Xrotation Yrotation
        JOINT ElbowRight
        {
          OFFSET 3.972863 -25.166444 6.126881
          CHANNELS 3 Zrotation Xrotation Yrotation
          JOINT WristRight
          {
            OFFSET 0.497990 -26.373868 2.617096
            CHANNELS 3 Zrotation Xrotation Yrotation
            JOINT HandRight
            {
              OFFSET 0.955577 -4.826673 1.575139
              CHANNELS 3 Zrotation Xrotation Yrotation
              JOINT HandTipRight
              {
                OFFSET 0.809456 -6.276738 0.030545
                CHANNELS 3 Zrotation Xrotation Yrotation
                End Site
                {
                  OFFSET 0 0 0
                }
              }
              JOINT ThumbRight
              {
                OFFSET -3.215767 -1.332631 -3.711321
                CHANNELS 3 Zrotation Xrotation Yrotation
                End Site
                {
                  OFFSET 0 0 0
                }
              }
            }
          }
        }
      }
    }
  }
  JOINT HipLeft
  {
    OFFSET -6.288618 2.198295 -5.889138
    CHANNELS 3 Zrotation Xrotation Yrotation
    JOINT KneeLeft
    {
      OFFSET -2.829236 -37.680514 -0.125420
      CHANNELS 3 Zrotation Xrotation Yrotation
      JOINT AnkleLeft
      {
        OFFSET -6.791565 -32.635010 -0.011726
        CHANNELS 3 Zrotation Xrotation Yrotation
        JOINT FootLeft
        {
          OFFSET 2.881369 -7.761005 -2.756268
          CHANNELS 3 Zrotation Xrotation Yrotation
          End Site
          {
            OFFSET 0 0 0
          }
        }
      }
    }
  }
  JOINT HipRight
  {
    OFFSET 5.063211 -0.481142 -0.744695
    CHANNELS 3 Zrotation Xrotation Yrotation
    JOINT KneeRight
    {
      OFFSET 4.004569 -34.452514 13.557287
      CHANNELS 3 Zrotation Xrotation Yrotation
      JOINT AnkleRight
      {
        OFFSET -7.572280 -32.185305 4.500431
        CHANNELS 3 Zrotation Xrotation Yrotation
        JOINT FootRight
        {
          OFFSET 5.055283 -4.349706 -9.758125
          CHANNELS 3 Zrotation Xrotation Yrotation
          End Site
          {
            OFFSET 0 0 0
          }
        }
      }
    }
  }
}
MOTION
Frames: 12
Frame Time: 0.033333
69.764310 76.550287 383.210994 -0.000000 0.000000 -24.379174 -0.000000 0.000000 24.379174 -0.000000 0.000000 0.000000 -0.000000 0.000000 0.000000 0.000000 0.000000 0.000000 -0.000000 0.000000 0.000000 -0.000000 0.000000 0.000000 -0.000000 0.000000 0.000000 -0.000000 0.000000 0.000000 0.000000 0.000000 0.000000 0.000000 0.000000 0.000000 -0.000000 0.000000 0.000000 -0.000000 0.000000 0.000000 -0.000000 0.000000 0.000000 -0.000000 0.000000 0.000000 0.000000 0.000000 0.000000 0.000000 0.000000 0.000000 -0.000000 0.000000 24.379174 -0.000000 0.000000 0.000000 -0.000000 0.000000 0.000000 0.000000 0.000000 0.000000 -0.000000 0.000000 24.379174 -0.000000 0.000000 0.000000 -0.000000 0.000000 0.000000 0.000000 0.000000 0.000000
69.681377 76.498274 383.127963 -0.068995 0.086401 -24.112509 0.098272 -0.050676 24.112605 -0.000000 0.000000 0.000000 -0.000000 0.000000 0.000000 0.000000 0.000000 0.000000 -0.000000 0.000000 0.000000 -0.000000 0.000000 0.000000 0.886110 -1.055402 0.153842 1.909382 3.484863 -0.017599 0.000000 0.000000 0.000000 0.000000 0.000000 0.000000 -0.000000 0.000000 0.000000 -0.000000 0.000000 0.000000 -1.808103 2.324918 -0.093983 1.813401 -2.320789 0.167410 0.000000 0.000000 0.000000 0.000000 0.000000 0.000000 0.098272 -0.050676 24.112605 -0.000000 0.000000 0.000000 -0.000000 0.000000 0.000000 0.000000 0.000000 0.000000 0.098272 -0.050676 24.112605 -0.000000 0.000000 0.000000 -0.098906 1.465821 1.874746 0.000000 0.000000 0.000000
69.607427 76.451728 383.056634 -0.131467 0.158974 -23.868457 0.184551 -0.092181 23.868788 -0.000000 0.000000 0.000000 -0.000000 0.000000 0.000000 0.000000 0.000000 0.000000 -0.000000 0.000000 0.000000 0.682008 -1.051016 0.116986 1.071742 -0.865447 0.190651 3.335018 6.245443 -0.202535 0.000000 0.000000 0.000000 0.000000 0.000000 0.000000 -0.000000 0.000000 0.000000 -0.000000 0.000000 0.000000 -3.281043 4.218781 -0.116606 3.298504 -4.205152 0.358620 0.000000 0.000000 0.000000 0.000000 0.000000 0.000000 0.184551 -0.092181 23.868788 -0.000000 0.000000 0.000000 -0.571459 0.827667 0.513996 0.000000 0.000000 0.000000 0.184551 -0.092181 23.868788 -0.000000 0.000000 0.000000 -0.362693 1.946677 2.979214 0.000000 0.000000 0.000000
69.542459 76.410647 382.997008 -0.187482 0.217817 -23.647022 0.259108 -0.124327 23.647660 -0.000000 0.000000 0.000000 -0.649929 0.568811 -0.132052 0.000000 0.000000 0.000000 -0.000000 0.000000 0.000000 0.934086 -1.424579 0.161287 1.665667 -1.132760 0.312463 4.283862 8.263308 -0.455282 0.000000 0.000000 0.000000 0.000000 0.000000 0.000000 -0.000000 0.000000 0.000000 -0.000000 0.000000 0.000000 -4.438966 5.703060 -0.100514 3.511813 -4.751413 0.572476 0.000000 0.000000 0.000000 0.000000 0.000000 0.000000 0.259108 -0.124327 23.647660 -0.000000 0.000000 0.000000 -0.891675 1.098489 0.732679 0.000000 0.000000 0.000000 1.106807 -0.458960 23.829051 -0.640288 0.648538 -0.173452 -0.764534 1.532599 3.429363 0.000000 0.000000 0.000000
69.486475 76.375031 382.949085 -0.237095 0.263014 -23.448221 0.322176 -0.146947 23.449178 -0.000000 0.000000 0.000000 -0.751365 0.702073 -0.168730 0.000000 0.000000 0.000000 -0.000000 0.000000 0.000000 1.132766 -1.707058 0.195617 2.285401 -1.245744 0.447932 4.760567 9.530751 -0.699094 0.000000 0.000000 0.000000 0.000000 0.000000 0.000000 -0.000000 0.000000 0.000000 -0.000000 0.000000 0.000000 -5.297842 6.798755 -0.069615 3.877761 -5.183130 0.747080 0.000000 0.000000 0.000000 0.000000 0.000000 0.000000 0.322176 -0.146947 23.449178 -0.000000 0.000000 0.000000 -1.234309 1.275244 0.925603 0.000000 0.000000 0.000000 1.334404 -0.513627 23.676344 -0.779852 0.742219 -0.216280 -1.330972 0.187723 3.237343 0.000000 0.000000 0.000000
69.439474 76.344882 382.912865 -0.280354 0.294629 -23.272082 0.373953 -0.159887 23.273325 -0.000000 0.000000 0.000000 -0.794765 0.806645 -0.202185 0.000000 0.000000 0.000000 -0.000000 0.000000 0.000000 1.281334 -1.904057 0.219810 2.921718 -1.170753 0.593491 4.768818 10.038989 -0.881480 0.000000 0.000000 0.000000 0.000000 0.000000 0.000000 -0.000000 0.000000 0.000000 -0.000000 0.000000 0.000000 -5.869013 7.522801 -0.040574 3.851674 -5.058527 0.894155 0.000000 0.000000 0.000000 0.000000 0.000000 0.000000 0.373953 -0.159887 23.273325 -0.000000 0.000000 0.000000 -1.599177 1.358610 1.092388 0.000000 0.000000 0.000000 1.492887 -0.517457 23.538321 -0.883118 0.774579 -0.252413 -2.148961 -2.257340 2.307334 0.000000 0.000000 0.000000
69.384097 76.323164 382.876792 -0.335005 0.330380 -23.048858 0.437613 -0.172841 23.050484 -0.000000 0.000000 0.000000 -0.847173 0.871689 -0.219516 0.000000 0.000000 0.000000 -0.000000 0.000000 0.000000 1.485989 -2.138689 0.248409 3.406598 0.265981 0.729871 4.483559 8.515554 -0.822710 0.000000 0.000000 0.000000 0.000000 0.000000 0.000000 -0.000000 0.000000 0.000000 -0.000000 0.000000 0.000000 -5.744073 7.558664 0.002364 2.285472 -2.099960 1.154332 0.000000 0.000000 0.000000 0.000000 0.000000 0.000000 0.437613 -0.172841 23.050484 -0.000000 0.000000 0.000000 -2.347973 1.598581 1.464082 0.000000 0.000000 0.000000 1.612909 -0.455462 23.354186 -0.967053 0.725267 -0.291138 -3.137134 -5.765235 0.205222 0.000000 0.000000 0.000000
69.352023 76.301018 382.866151 -0.364911 0.335604 -22.899509 0.466742 -0.167155 22.901258 -0.000000 0.000000 0.000000 -0.732924 0.906743 -0.248109 0.000000 0.000000 0.000000 -0.000000 0.000000 0.000000 1.519813 -2.248540 0.264054 3.978101 1.539263 0.846099 3.163458 6.776827 -0.852147 0.000000 0.000000 0.000000 0.000000 0.000000 0.000000 -0.000000 0.000000 0.000000 -0.000000 0.000000 0.000000 -6.126564 7.951815 0.001857 2.924574 -4.866458 0.872101 0.000000 0.000000 0.000000 0.000000 0.000000 0.000000 0.466742 -0.167155 22.901258 -0.000000 0.000000 0.000000 -3.098429 1.656150 1.768899 0.000000 0.000000 0.000000 1.635748 -0.326539 23.234675 -1.011376 0.607543 -0.323017 -4.509148 -10.263473 -2.980908 0.000000 0.000000 0.000000
69.333395 76.261162 382.875515 -0.387338 0.308237 -22.647590 0.476162 -0.135314 22.649195 -0.000000 0.000000 0.000000 -0.560066 0.915104 -0.274678 0.000000 0.000000 0.000000 -0.000000 0.000000 0.000000 1.534853 -2.253311 0.264307 5.565617 1.155198 1.165441 0.828316 6.616448 -1.210480 0.000000 0.000000 0.000000 0.000000 0.000000 0.000000 -0.000000 0.000000 0.000000 -0.000000 0.000000 0.000000 -7.022297 7.741634 -0.293843 2.490021 -2.953682 1.414893 0.000000 0.000000 0.000000 0.000000 0.000000 0.000000 0.476162 -0.135314 22.649195 -0.000000 0.000000 0.000000 -3.422976 1.562674 1.854331 0.000000 0.000000 0.000000 1.594928 -0.189612 22.993615 -1.008702 0.486950 -0.336961 -8.871231 -19.553726 -8.657479 0.000000 0.000000 0.000000
69.337898 76.245986 382.896212 -0.400839 0.267532 -22.641646 0.472937 -0.092598 22.642964 -0.000000 0.000000 0.000000 -0.299441 0.946149 -0.321847 0.000000 0.000000 0.000000 -0.000000 0.000000 0.000000 1.374969 -2.018250 0.233821 6.176152 0.913795 1.306212 -0.296921 5.486958 -1.148504 0.000000 0.000000 0.000000 0.000000 0.000000 0.000000 -0.000000 0.000000 0.000000 -0.000000 0.000000 0.000000 -5.866904 5.722002 -0.502336 0.970622 0.145626 1.588030 0.000000 0.000000 0.000000 0.000000 0.000000 0.000000 0.472937 -0.092598 22.642964 -0.000000 0.000000 0.000000 -3.314774 1.160591 1.653732 0.000000 0.000000 0.000000 1.454600 0.014502 22.983289 -0.945564 0.284688 -0.337307 -20.747563 -35.049889 -20.321199 0.000000 0.000000 0.000000
69.342452 76.225709 382.903672 -0.406512 0.237419 -22.705543 0.466650 -0.062103 22.706638 -0.000000 0.000000 0.000000 -0.139527 0.930358 -0.337605 0.000000 0.000000 0.000000 -0.000000 0.000000 0.000000 1.288523 -1.805148 0.204691 5.999464 0.321975 1.302578 -0.048699 5.950867 -1.114846 0.000000 0.000000 0.000000 0.000000 0.000000 0.000000 -0.000000 0.000000 0.000000 -0.000000 0.000000 0.000000 -5.847037 5.665233 -0.511136 1.580228 -2.344436 1.197310 0.000000 0.000000 0.000000 0.000000 0.000000 0.000000 0.466650 -0.062103 22.706638 -0.000000 0.000000 0.000000 -3.330591 0.878323 1.547196 0.000000 0.000000 0.000000 1.233225 0.030372 22.974299 -0.741869 0.214062 -0.266062 -25.430755 -39.097266 -25.693564 0.000000 0.000000 0.000000
69.385931 76.222947 382.925341 -0.360595 0.181719 -22.883370 0.402877 -0.027195 22.884037 -0.000000 0.000000 0.000000 -0.075914 0.921947 -0.343052 0.000000 0.000000 0.000000 -0.000000 0.000000 0.000000 1.132003 -1.681633 0.191859 5.189647 -0.851580 1.113117 1.158793 7.024632 -0.892992 0.000000 0.000000 0.000000 0.000000 0.000000 0.000000 -0.000000 0.000000 0.000000 -0.000000 0.000000 0.000000 -2.656609 2.347095 -0.351912 -1.746620 2.724333 1.114566 0.000000 0.000000 0.000000 0.000000 0.000000 0.000000 0.402877 -0.027195 22.884037 -0.000000 0.000000 0.000000 -2.885320 0.218541 1.121247 0.000000 0.000000 0.000000 0.402877 -0.027195 22.884037 0.456081 -1.102839 0.327502 -16.354607 -28.649253 -15.662975 0.000000 0.000000 0.000000
